<svg width="115" height="115" viewBox="0 0 115 115" fill="none" xmlns="http://www.w3.org/2000/svg">
<path fill-rule="evenodd" clip-rule="evenodd" d="M41.1583 1.93908C15.8493 10.1211 0.1373 31.0661 0.00129976 56.8021C-0.0497002 66.5971 1.3943 73.3231 5.3683 81.7961C25.1383 123.949 84.7843 125.557 107.661 84.5531C116.352 68.9741 116.717 46.9531 108.544 31.2001C101.601 17.8171 88.9503 7.13608 74.6583 2.58908C64.6563 -0.592922 49.8763 -0.879921 41.1583 1.93908ZM69.2263 12.6651C87.9203 18.2111 100.449 32.5481 103.065 51.3871C105.943 72.1081 92.9583 93.4461 73.1153 100.603C56.3433 106.653 39.2233 103.343 26.3003 91.5531C14.7963 81.0571 10.6963 70.9461 11.3443 54.6731C11.7023 45.6951 12.1273 43.7631 15.1093 37.5531C20.8343 25.6351 32.5273 15.8521 45.1583 12.4131C51.5783 10.6651 62.8873 10.7831 69.2263 12.6651ZM75.5733 35.4271C68.3923 38.6651 65.6353 46.2761 69.0733 53.3771C73.1363 61.7701 85.4953 60.9161 89.7583 56.6531C94.0213 52.3901 94.9873 47.3941 92.5113 42.4111C89.1243 35.5961 81.8513 32.5971 75.5733 35.4271ZM86.6403 39.6781C88.6273 41.6641 88.2703 44.9651 85.9083 46.4461C81.7543 49.0507 78.0043 42.1011 81.7543 39.3591C83 38.4482 85.4616 38.5 86.6403 39.6781ZM25.6583 48.0171C17.6463 51.3721 14.5 61 20.5 69.5C21.9418 71.5426 25.6753 73.0531 29.6083 73.0531C38.5 72 42.5 67 43.4313 59.8721C43.4313 51.1731 33.6703 44.6621 25.6583 48.0171ZM37.1473 52.5401C38.7553 54.4771 37.6743 58.6861 35.4193 59.2711C32.9293 59.9171 31.3023 59.1901 30.0673 56.8831C27.9663 52.9571 34.2793 49.0841 37.1473 52.5401Z" fill="white"/>
</svg>
